<svg id="Layer_1" data-name="Layer 1" xmlns="http://www.w3.org/2000/svg" viewBox="0 0 763.26 109.34"><defs><style>.cls-1{fill:#fff;}</style></defs><path class="cls-1" d="M34.83,0A34.84,34.84,0,0,0,0,34.83v74.51H153.39V0Zm79.66,79.37L80,96.76,45.5,79.37V59.72L80,74.63l34.5-14.91Zm13.44-31.8-2.67,1.09L80,67.24l-41.33-17-6.33-2.6V77.48a10.37,10.37,0,0,1,6.55,9.63V95.5H18.16V87.11a10.36,10.36,0,0,1,6.55-9.63V44.54L13.4,39.9,39,29.38,75.9,14.25,80,12.57l5.65,2.32,23.83,9.78L146.59,39.9Z"/><rect class="cls-1" x="78.45" y="67.18" width="37.58" transform="translate(-18.67 44.09) rotate(-23.37)"/><polygon class="cls-1" points="45.5 79.37 45.5 59.73 45.5 59.73 45.5 79.37 79.99 96.77 79.99 96.77 45.5 79.37"/><rect class="cls-1" x="79.99" y="74.63" transform="translate(-23.58 39.4) rotate(-24.23)"/><polygon class="cls-1" points="114.49 59.73 114.49 59.73 114.49 79.37 79.99 96.77 79.99 96.77 114.49 79.37 114.49 59.73"/><rect class="cls-1" x="62.74" y="48.39" height="37.58" transform="translate(-22.04 31.67) rotate(-24.23)"/><path class="cls-1" d="M229.43,94,191.91,42.7V94H175.16V15.32h17.22l36.46,49.44V15.32H245.6V94Z"/><path class="cls-1" d="M262.83,94V15.32h55.69V30.07H279.58V46.71H317.7V61.46H279.58V79.27h38.94V94Z"/><path class="cls-1" d="M333.27,94V15.32h36.82c17.11,0,26.43,11.56,26.43,25.37s-9.44,25.37-26.43,25.37H350V94Zm46.14-53.33c0-6.61-5-10.62-11.56-10.62H350V51.31h17.82C374.45,51.31,379.41,47.18,379.41,40.69Z"/><path class="cls-1" d="M454.1,94l-4.83-13.33H415.52l-5,13.33H391.45l30.44-78.7h21L473.22,94ZM432.39,32.08,420.12,65.94h24.54Z"/><path class="cls-1" d="M482.19,94V15.32h16.75v64h33.28V94Z"/><path class="cls-1" d="M599.83,94,595,80.69H561.25l-5,13.33H537.18l30.44-78.7h21L619,94ZM578.12,32.08,565.85,65.94h24.54Z"/><path class="cls-1" d="M642,94V61.81L611.63,15.32h19.12l19.59,31.62,19.35-31.62H688.8L658.71,61.81V94Z"/><path class="cls-1" d="M744.15,94l-4.84-13.33H705.56L700.61,94H681.49l30.44-78.7h21L763.26,94ZM722.43,32.08,710.16,65.94h24.55Z"/></svg>